<?xml version="1.0" standalone="no"?>
<!DOCTYPE svg PUBLIC "-//W3C//DTD SVG 20010904//EN"
 "http://www.w3.org/TR/2001/REC-SVG-20010904/DTD/svg10.dtd">
<svg version="1.0" xmlns="http://www.w3.org/2000/svg"
 width="512.000000pt" height="512.000000pt" viewBox="0 0 512.000000 512.000000"
 preserveAspectRatio="xMidYMid meet">
<metadata>
Created by potrace 1.14, written by Peter Selinger 2001-2017
</metadata>
<g transform="translate(0.000000,512.000000) scale(0.100000,-0.100000)"
fill="#000000" stroke="none">
<path d="M3630 4993 c-14 -3 -54 -32 -88 -66 -131 -127 -243 -298 -319 -485
-23 -59 -43 -101 -43 -94 0 21 -93 151 -157 218 -247 262 -599 361 -1063 299
-56 -7 -111 -14 -180 -21 -61 -6 -102 -11 -107 -13 -9 -3 141 -276 202 -366
147 -220 301 -351 500 -426 76 -29 170 -44 280 -44 140 0 272 30 403 91 80 36
86 38 78 26 -5 -9 -19 -174 -20 -247 l-1 -50 -35 1 c-54 2 -116 13 -214 40
-201 54 -278 67 -406 67 -69 1 -152 -2 -185 -7 -78 -10 -224 -57 -300 -97 -99
-51 -228 -149 -197 -149 15 0 78 -64 95 -97 33 -62 83 -307 91 -443 2 -22 6
-24 55 -26 72 -4 151 -43 185 -93 25 -35 57 -124 70 -191 3 -14 10 -50 15 -80
6 -30 13 -66 16 -79 9 -47 19 -142 24 -219 1 -15 5 -21 13 -16 20 12 121 6
159 -10 52 -22 97 -62 120 -108 23 -46 72 -249 92 -388 20 -134 21 -348 3
-435 -53 -245 -172 -401 -401 -525 -44 -24 -82 -45 -84 -46 -9 -8 120 -118
184 -157 246 -151 481 -167 749 -52 l81 35 90 -35 c50 -20 90 -35 90 -34 0 1
25 -4 55 -12 80 -20 279 -17 360 4 86 23 199 77 277 133 289 207 667 731 829
1152 15 37 32 81 39 97 16 35 81 256 90 300 3 17 13 71 22 120 12 62 17 145
17 270 1 174 -1 191 -39 355 -32 139 -143 334 -262 455 -188 194 -401 307
-653 350 -84 13 -302 13 -380 0 -140 -25 -194 -37 -255 -53 -38 -11 -96 -23
-129 -27 l-59 -7 7 114 c3 62 8 123 10 134 3 12 7 39 10 60 8 49 54 221 66
243 5 9 25 50 44 92 57 120 121 211 229 323 56 56 71 88 63 131 -7 34 -49 85
-71 85 -7 0 -19 2 -27 4 -7 2 -24 1 -38 -1z"/>
<path d="M287 4543 c-45 -153 -61 -329 -38 -425 5 -21 7 -38 6 -38 -2 0 7 -28
20 -61 50 -127 128 -216 242 -277 59 -31 173 -72 203 -72 23 0 98 153 116 235
50 227 -57 434 -313 606 -89 59 -193 119 -206 119 -2 0 -16 -39 -30 -87z"/>
<path d="M1330 4000 c-14 -11 -29 -24 -35 -28 -5 -4 -41 -32 -80 -61 -235
-177 -308 -313 -269 -498 16 -78 78 -213 97 -213 21 0 153 57 198 86 146 92
192 191 184 399 -4 121 -42 326 -61 332 -5 1 -20 -7 -34 -17z"/>
<path d="M210 3473 c-36 -7 -98 -18 -138 -25 l-72 -13 36 -55 c220 -330 385
-424 619 -352 66 21 175 75 175 88 0 22 -52 146 -79 189 -49 78 -145 152 -221
172 -46 11 -254 9 -320 -4z"/>
<path d="M1545 3370 c-204 -155 -290 -250 -329 -363 -33 -97 -14 -229 51 -362
42 -87 36 -86 158 -33 152 66 245 156 283 272 27 82 27 247 0 382 -22 115 -25
130 -36 167 l-7 28 -120 -91z"/>
<path d="M465 2874 c-44 -6 -96 -15 -115 -18 -19 -4 -51 -9 -70 -12 -74 -12
-73 -10 -33 -72 20 -31 39 -59 43 -62 3 -3 22 -27 40 -55 61 -90 188 -208 265
-246 123 -60 262 -50 431 31 l83 41 -19 44 c-11 25 -17 45 -15 45 13 0 -81
158 -116 195 -46 49 -120 92 -191 110 -60 16 -195 16 -303 -1z"/>
<path d="M1989 2847 c-15 -12 -39 -31 -55 -42 -65 -46 -240 -190 -279 -228
-57 -57 -119 -152 -140 -212 -41 -118 -21 -266 56 -423 47 -95 32 -92 167 -34
261 110 356 249 351 512 -1 60 -5 128 -9 152 -5 24 -11 60 -14 80 -3 21 -11
57 -16 80 -6 24 -13 56 -16 72 -12 63 -16 67 -45 43z"/>
<path d="M857 2235 c-1 -2 -36 -5 -77 -8 -65 -5 -370 -54 -376 -60 -2 -1 25
-44 59 -95 262 -391 475 -496 768 -383 76 30 179 79 179 86 0 13 -58 158 -78
195 -81 147 -199 235 -343 255 -49 7 -128 13 -132 10z"/>
<path d="M2269 2089 c-74 -56 -167 -131 -208 -168 -225 -200 -283 -384 -204
-636 23 -73 95 -215 109 -215 20 0 186 70 250 105 119 67 210 168 248 280 41
118 40 325 -3 530 -37 178 -44 205 -51 205 -4 0 -68 -46 -141 -101z"/>
<path d="M1097 1494 c-1 -1 -36 -5 -77 -8 -41 -4 -84 -9 -95 -11 -20 -5 -32
-7 -124 -22 -25 -4 -48 -8 -51 -8 -3 -1 -31 -5 -63 -9 -31 -5 -59 -11 -61 -15
-4 -6 117 -197 133 -211 4 -3 20 -23 36 -45 16 -22 63 -75 104 -118 231 -242
448 -274 771 -112 41 20 76 39 78 40 8 7 -31 114 -67 189 -90 185 -219 289
-398 322 -28 6 -181 12 -186 8z"/>
<path d="M1985 850 c-22 -10 -63 -29 -91 -41 l-52 -22 15 -36 c8 -20 20 -49
28 -66 7 -16 27 -64 45 -105 18 -41 40 -93 50 -115 10 -22 39 -89 64 -148 64
-150 72 -165 105 -181 69 -36 161 18 161 94 0 11 -50 135 -111 277 -137 320
-157 363 -166 362 -5 0 -26 -9 -48 -19z"/>
</g>
</svg>
